# Blender v2.77 (sub 0) OBJ File: 'launch_pad.blend'
# www.blender.org
mtllib launch_pad.mtl
o Box1_Cube.009
v 0.870000 0.100000 0.750000
v 0.870000 0.700000 0.750000
v 0.870000 0.100000 -0.750000
v 0.870000 0.700000 -0.750000
v 1.170000 0.100000 0.750000
v 1.290000 0.700000 0.750000
v 1.170000 0.100000 -0.750000
v 1.290000 0.700000 -0.750000
vt 0.000000 0.000000
vt 0.000000 0.000000
vt 0.000000 0.000000
vt 0.000000 0.000000
vt 0.765625 0.500000
vt 0.718750 0.500000
vt 0.718750 0.687500
vt 0.765625 0.687500
vt 0.953125 1.000000
vt 0.718750 1.000000
vt 0.718750 0.812500
vt 0.953125 0.812500
vt 0.765625 0.500000
vt 0.718750 0.500000
vt 0.718750 0.687500
vt 0.765625 0.687500
vt 0.953125 0.812500
vt 0.718750 0.812500
vt 0.953125 0.687500
vt 0.718750 0.687500
vt 0.953125 0.687500
vt 0.953125 0.812500
vt 0.718750 0.812500
vn -1.000000 0.000000 0.000000
vn 0.000000 0.000000 -1.000000
vn 0.980600 -0.196100 0.000000
vn 0.000000 0.000000 1.000000
vn 0.000000 -1.000000 0.000000
vn 0.000000 1.000000 0.000000
usemtl Texture
s off
f 2/1/1 4/2/1 3/3/1 1/4/1
f 4/5/2 8/6/2 7/7/2 3/8/2
f 8/9/3 6/10/3 5/11/3 7/12/3
f 6/13/4 2/14/4 1/15/4 5/16/4
f 1/17/5 3/18/5 7/7/5 5/19/5
f 6/20/6 8/21/6 4/22/6 2/23/6
o Cube
v 1.199999 0.000000 -1.199999
v 1.199999 0.000000 1.199999
v -1.200000 0.000000 1.199999
v -1.199999 0.000000 -1.200000
v 0.960000 0.800000 -0.959999
v 0.959999 0.800000 0.960000
v -0.960000 0.800000 0.959999
v -0.960000 0.800000 -0.960000
vt 0.375000 1.000000
vt 0.000071 0.999929
vt 0.000000 0.250000
vt 0.375000 0.250000
vt 0.718750 1.000000
vt 0.375000 1.000000
vt 0.375000 0.312500
vt 0.718750 0.312500
vt 0.375000 -0.000000
vt 0.375000 0.250000
vt -0.000000 0.250000
vt 0.000071 0.000071
vt 0.375000 0.000000
vt 0.375000 0.250000
vt -0.000000 0.250000
vt 0.000071 0.000071
vt -0.000000 0.000000
vt 0.375000 0.000000
vt -0.000000 0.250000
vt 0.000071 0.000071
vt 0.375000 -0.000000
vt 0.375000 0.250000
vn 0.000000 -1.000000 0.000000
vn 0.000000 1.000000 0.000000
vn 0.957800 0.287300 0.000000
vn -0.000000 0.287300 0.957800
vn -0.957800 0.287300 -0.000000
vn 0.000000 0.287300 -0.957800
usemtl Texture
s off
f 9/24/7 10/25/7 11/26/7 12/27/7
f 13/28/8 16/29/8 15/30/8 14/31/8
f 9/32/9 13/33/9 14/34/9 10/35/9
f 10/36/10 14/37/10 15/38/10 11/39/10
f 11/26/11 15/40/11 16/41/11 12/27/11
f 13/42/12 9/43/12 12/44/12 16/45/12
o Box2_Cube.010
v 0.750000 0.100000 -0.870000
v 0.750000 0.700000 -0.870000
v -0.750000 0.100000 -0.870000
v -0.750000 0.700000 -0.870000
v 0.750000 0.100000 -1.170000
v 0.750000 0.700000 -1.290000
v -0.750000 0.100000 -1.170000
v -0.750000 0.700000 -1.290000
vt 0.000000 0.000000
vt 0.000000 0.000000
vt 0.000000 0.000000
vt 0.000000 0.000000
vt 0.765625 0.500000
vt 0.718750 0.500000
vt 0.718750 0.687500
vt 0.765625 0.687500
vt 0.953125 1.000000
vt 0.718750 1.000000
vt 0.718750 0.812500
vt 0.953125 0.812500
vt 0.765625 0.500000
vt 0.718750 0.500000
vt 0.718750 0.687500
vt 0.765625 0.687500
vt 0.953125 0.812500
vt 0.718750 0.812500
vt 0.953125 0.687500
vt 0.718750 0.687500
vt 0.953125 0.687500
vt 0.953125 0.812500
vt 0.718750 0.812500
vn 0.000000 0.000000 1.000000
vn -1.000000 0.000000 0.000000
vn 0.000000 -0.196100 -0.980600
vn 1.000000 0.000000 0.000000
vn 0.000000 -1.000000 0.000000
vn 0.000000 1.000000 0.000000
usemtl Texture
s off
f 18/46/13 20/47/13 19/48/13 17/49/13
f 20/50/14 24/51/14 23/52/14 19/53/14
f 24/54/15 22/55/15 21/56/15 23/57/15
f 22/58/16 18/59/16 17/60/16 21/61/16
f 17/62/17 19/63/17 23/52/17 21/64/17
f 22/65/18 24/66/18 20/67/18 18/68/18
o Box3_Cube.011
v -0.870000 0.100000 -0.750000
v -0.870000 0.700000 -0.750000
v -0.870000 0.100000 0.750000
v -0.870000 0.700000 0.750000
v -1.170000 0.100000 -0.750000
v -1.290000 0.700000 -0.750000
v -1.170000 0.100000 0.750000
v -1.290000 0.700000 0.750000
vt 0.000000 0.000000
vt 0.000000 0.000000
vt 0.000000 0.000000
vt 0.000000 0.000000
vt 0.765625 0.500000
vt 0.718750 0.500000
vt 0.718750 0.687500
vt 0.765625 0.687500
vt 0.953125 1.000000
vt 0.718750 1.000000
vt 0.718750 0.812500
vt 0.953125 0.812500
vt 0.765625 0.500000
vt 0.718750 0.500000
vt 0.718750 0.687500
vt 0.765625 0.687500
vt 0.953125 0.812500
vt 0.718750 0.812500
vt 0.953125 0.687500
vt 0.718750 0.687500
vt 0.953125 0.687500
vt 0.953125 0.812500
vt 0.718750 0.812500
vn 1.000000 0.000000 -0.000000
vn 0.000000 0.000000 1.000000
vn -0.980600 -0.196100 0.000000
vn 0.000000 0.000000 -1.000000
vn 0.000000 -1.000000 0.000000
vn 0.000000 1.000000 -0.000000
usemtl Texture
s off
f 26/69/19 28/70/19 27/71/19 25/72/19
f 28/73/20 32/74/20 31/75/20 27/76/20
f 32/77/21 30/78/21 29/79/21 31/80/21
f 30/81/22 26/82/22 25/83/22 29/84/22
f 25/85/23 27/86/23 31/75/23 29/87/23
f 30/88/24 32/89/24 28/90/24 26/91/24
o Box4_Cube.012
v -0.750000 0.100000 0.870000
v -0.750000 0.700000 0.870000
v 0.750000 0.100000 0.870000
v 0.750000 0.700000 0.870000
v -0.750000 0.100000 1.170000
v -0.750000 0.700000 1.290000
v 0.750000 0.100000 1.170000
v 0.750000 0.700000 1.290000
vt 0.000000 0.000000
vt 0.000000 0.000000
vt 0.000000 0.000000
vt 0.000000 0.000000
vt 0.765625 0.500000
vt 0.718750 0.500000
vt 0.718750 0.687500
vt 0.765625 0.687500
vt 0.953125 1.000000
vt 0.718750 1.000000
vt 0.718750 0.812500
vt 0.953125 0.812500
vt 0.765625 0.500000
vt 0.718750 0.500000
vt 0.718750 0.687500
vt 0.765625 0.687500
vt 0.953125 0.812500
vt 0.718750 0.812500
vt 0.953125 0.687500
vt 0.718750 0.687500
vt 0.953125 0.687500
vt 0.953125 0.812500
vt 0.718750 0.812500
vn 0.000000 0.000000 -1.000000
vn 1.000000 0.000000 0.000000
vn 0.000000 -0.196100 0.980600
vn -1.000000 0.000000 0.000000
vn 0.000000 -1.000000 0.000000
vn 0.000000 1.000000 0.000000
usemtl Texture
s off
f 34/92/25 36/93/25 35/94/25 33/95/25
f 36/96/26 40/97/26 39/98/26 35/99/26
f 40/100/27 38/101/27 37/102/27 39/103/27
f 38/104/28 34/105/28 33/106/28 37/107/28
f 33/108/29 35/109/29 39/98/29 37/110/29
f 38/111/30 40/112/30 36/113/30 34/114/30
